<?xml version="1.0" encoding="UTF-8" standalone="no"?>
<svg
   xmlns:dc="http://purl.org/dc/elements/1.1/"
   xmlns:cc="http://creativecommons.org/ns#"
   xmlns:rdf="http://www.w3.org/1999/02/22-rdf-syntax-ns#"
   xmlns:svg="http://www.w3.org/2000/svg"
   xmlns="http://www.w3.org/2000/svg"
   viewBox="0 0 690 690.66669"
   height="690.66669"
   width="690"
   id="svg8434"
   version="1.1">
  <metadata
     id="metadata8440">
    <rdf:RDF>
      <cc:Work
         rdf:about="">
        <dc:format>image/svg+xml</dc:format>
        <dc:type
           rdf:resource="http://purl.org/dc/dcmitype/StillImage" />
        <dc:title></dc:title>
      </cc:Work>
    </rdf:RDF>
  </metadata>
  <defs
     id="defs8438" />
  <path
     id="path9683"
     d="m -4.73877,532.3306 692.37043,5.96768 6.82163,152.36841 H 0 Z"
     style="fill:#000000;stroke:#000000;stroke-width:1px;stroke-linecap:butt;stroke-linejoin:miter;stroke-opacity:1" />
  <path
     id="path1055-3"
     d="M -4.73877,532.3306 -6.77581,173.37909 0.60403757,-6.4222343 C 235.73415,-11.230244 524.51629,-0.2339255 705.41349,-3.6725755 l -8.3547,421.5296255 9.14671,153.88646 z"
     style="fill:#8dabb5;fill-opacity:1;stroke:none;stroke-width:8.53768158px;stroke-linecap:butt;stroke-linejoin:miter;stroke-opacity:1" />
  <g
     transform="translate(-48,4.000006)"
     id="g9657">
    <path
       style="fill:#7e825f;fill-opacity:1;stroke:none;stroke-width:1px;stroke-linecap:butt;stroke-linejoin:miter;stroke-opacity:1"
       d="m 147.18896,270.28017 8.73209,-22.11348 23.28948,-14.60527 -0.78948,-7.89473 15.39474,-0.39474 13.81579,-13.42105 4.73684,-21.31579 3.94737,28.02631 21.71053,8.28948 3.55263,12.23684 24.3779,31.58716 z"
       id="path9005" />
    <path
       style="fill:#757b47;fill-opacity:1;stroke:none;stroke-width:1px;stroke-linecap:butt;stroke-linejoin:miter;stroke-opacity:1"
       d="m 407.92666,153.80135 c 0,-1.3956 -0.5582,-13.39781 -0.5582,-13.39781 l -4.1869,1.39561 2.7913,-12.28133 11.1648,-10.6066 V 97.698012 l 8.0945,-1.116484 3.0703,10.606602 1.3957,13.95605 13.3978,12.56045 -2.79126,13.95606 -0.27914,10.32748 z"
       id="path9233" />
    <path
       style="fill:#7e825f;fill-opacity:1;stroke:none;stroke-width:1px;stroke-linecap:butt;stroke-linejoin:miter;stroke-opacity:1"
       d="m 312.2369,224.87722 1.18421,5.92106 21.31579,5.13158 -2.36842,9.86842 38.28948,-11.05264 1.57894,-18.55263 20.52632,6.71053 76.57895,5.52632 50.92105,37.5 13.02631,-13.81579 -3.55263,-7.10527 -7.10526,-43.81579 -26.84211,-32.76315 -47.76315,-24.86843 -45,-3.94736 -49.34211,16.18421 -32.36842,38.68421 z"
       id="path9003" />
    <path
       style="fill:#949872;fill-opacity:1;stroke:none;stroke-width:1px;stroke-linecap:butt;stroke-linejoin:miter;stroke-opacity:1"
       d="m 384.47376,206.12723 2.7632,-40.26316 20.1315,-25.46053 28.2237,2.76316 23.8816,17.17105 13.0263,34.53948 v 20.13158 l -61.5789,-1.77632 z"
       id="path9085" />
    <path
       style="fill:#adb093;fill-opacity:1;stroke:none;stroke-width:1px;stroke-linecap:butt;stroke-linejoin:miter;stroke-opacity:1"
       d="m 310.36006,225.4183 -0.24768,11.14842 70.16061,-19.23471 99.82387,8.08629 51.42804,30.55002 3.05392,-12.85459 -54.19458,-36.04488 -106.65154,-5.61388 z"
       id="path9191" />
    <path
       style="fill:#000000;fill-opacity:1;stroke:none;stroke-width:1px;stroke-linecap:butt;stroke-linejoin:miter;stroke-opacity:1"
       d="m 420.27163,99.792058 0.59211,-43.42105 3.35526,1.18421 -0.98684,43.026312 z"
       id="path9235-0" />
    <path
       style="fill:#30488d;fill-opacity:1;stroke:#000000;stroke-width:1px;stroke-linecap:butt;stroke-linejoin:miter;stroke-opacity:1"
       d="m 420.86374,60.371008 -24.07897,-2.17105 -12.4342,-0.78948 1.7763,21.51316 9.079,-3.55263 18.74997,6.71053 8.09211,-0.59211 z"
       id="path9237-6" />
    <path
       style="fill:#383535;fill-opacity:1;stroke:none;stroke-width:1px;stroke-linecap:butt;stroke-linejoin:miter;stroke-opacity:1"
       d="m 115.36193,536.62065 2.66439,-64.63817 188.68421,19.73684 -11.84211,48.94736 z"
       id="path9073" />
    <path
       style="fill:#948888;fill-opacity:1;stroke:none;stroke-width:1px;stroke-linecap:butt;stroke-linejoin:miter;stroke-opacity:1"
       d="m 334.38708,522.63579 175.84629,5.58242 -2.93077,-22.05057 -176.40454,-2.37253 -0.6978,20.23628 z"
       id="path9149" />
    <path
       style="fill:#a9a0a0;fill-opacity:1;stroke:none;stroke-width:1px;stroke-linecap:butt;stroke-linejoin:miter;stroke-opacity:1"
       d="m 330.7895,520.14038 -1.11943,13.72798 178.77706,5.58242 0.41868,-13.39782 z"
       id="path9151" />
    <path
       style="fill:#a24000;fill-opacity:1;stroke:none;stroke-width:1px;stroke-linecap:butt;stroke-linejoin:miter;stroke-opacity:1"
       d="m 115.26656,296.35614 1.3956,-19.25935 7.8154,-8.65276 10.3275,-1.11648 1.9538,3.62857 43.2638,-10.88572 12.2813,-8.65275 13.9561,10.32748 7.2571,3.90769 71.7341,0.83737 1.1165,-15.90991 14.2352,-2.23297 v -17.02638 l 8.9319,-9.76924 20.934,5.02418 0.8374,9.21099 35.4484,-10.88572 5.3033,-20.93408 11.7231,-2.23297 8.0945,10.04836 74.8044,4.74506 15.3517,-5.3033 5.8615,13.11869 -0.2791,10.6066 30.9825,18.98024 3.2456,-8.92094 23.2895,-0.78948 6.3157,24.47369 -0.7894,3.55263 10.2631,0.78947 v 5.92106 l -4.3421,2.76315 2.3684,11.84211 59.2106,5.52631 v -9.07894 l 12.6316,-10.26316 10.2631,7.5 1.1842,16.18421 19.7369,7.5 -1.579,-7.10526 11.8421,3.15789 2.3684,12.23684 12.2369,9.07895 -0.7895,11.84211 1.579,198.15789 -1.52288,24.51335 -54.18632,-1.57894 -75.49122,-1.26426 1.72259,-35.04332 -33.94327,-0.0479 -22.1053,-2.36842 v -44.21053 l -42.6315,-44.21053 -53.6843,-8.68421 -44.2105,22.10527 -22.1052,31.57894 -5.5264,46.57895 -67.8947,-3.15789 -3.1579,-21.31579 -39.4737,-12.63158 -18.1579,11.05263 -7.8947,16.57895 -41.0526,-1.57895 2e-5,-13.81578 -12.98469,-6.19465 -12.24401,-3.82959 -11.48183,4.10319 -2.76319,18.15788 -20.5263,-2.36842 9.4736,-161.8421 -3.1578,-6.31579 2.3684,-11.05263 -0.7895,-14.21053 -13.4211,-13.42105 z"
       id="path9047" />
    <path
       style="fill:#b8b1b1;fill-opacity:1;stroke:none;stroke-width:1px;stroke-linecap:butt;stroke-linejoin:miter;stroke-opacity:1"
       d="m 326.57169,529.89294 -0.41868,9.90879 187.70894,3.62858 0.27912,-9.07144 z"
       id="path9153" />
    <path
       style="fill:#a4742c;fill-opacity:1;stroke:none;stroke-width:1px;stroke-linecap:butt;stroke-linejoin:miter;stroke-opacity:1"
       d="m 335.25258,494.42062 -0.91039,13.48292 168.25658,-0.39474 -0.29605,-11.8421 z"
       id="path9021" />
    <path
       style="fill:#3f3f20;fill-opacity:1;stroke:none;stroke-width:1px;stroke-linecap:butt;stroke-linejoin:miter;stroke-opacity:1"
       d="m 341.44737,475.33774 21.71052,-30 42.63157,-19.93421 51.71054,1.38158 28.81579,22.69737 19.53947,30.98684 -125.32895,-3.94737 z"
       id="path8987" />
    <path
       style="fill:#1e1e0f;fill-opacity:1;stroke:none;stroke-width:1px;stroke-linecap:butt;stroke-linejoin:miter;stroke-opacity:1"
       d="m 340.6579,473.36405 -3.75001,8.28948 168.35527,4.53947 -3.1579,-7.89473 z"
       id="path9019" />
    <path
       style="fill:#73412a;fill-opacity:1;stroke:none;stroke-width:1px;stroke-linecap:butt;stroke-linejoin:miter;stroke-opacity:1"
       d="m 364.21946,446.3389 0.1396,33.49453 3.0703,-0.55824 -0.4187,-35.0297 z"
       id="path9179" />
    <path
       style="fill:#000000;fill-opacity:1;stroke:none;stroke-width:1px;stroke-linecap:butt;stroke-linejoin:miter;stroke-opacity:1"
       d="m 336.90789,481.65353 -1.65531,12.76709 167.05014,1.24608 2.34823,-12.94523 z"
       id="path9145" />
    <path
       style="fill:#ffffff;fill-opacity:0.1712963;stroke:none;stroke-width:1px;stroke-linecap:butt;stroke-linejoin:miter;stroke-opacity:1"
       d="m 637.89474,352.37721 1.18421,209.21053 47.02983,1.22388 -1.17252,-198.66683 z"
       id="path9354" />
    <path
       style="fill:#73412a;fill-opacity:1;stroke:none;stroke-width:1px;stroke-linecap:butt;stroke-linejoin:miter;stroke-opacity:1"
       d="m 386.82826,433.22021 0.2792,46.3341 3.2098,-0.55824 v -47.45059 z"
       id="path9181" />
    <path
       style="fill:#73412a;fill-opacity:1;stroke:none;stroke-width:1px;stroke-linecap:butt;stroke-linejoin:miter;stroke-opacity:1"
       d="m 409.71626,426.38174 -0.2792,52.89345 3.3495,0.27912 0.5582,-54.56817 z"
       id="path9183" />
    <path
       style="fill:#ffac20;fill-opacity:1;stroke:none;stroke-width:1px;stroke-linecap:butt;stroke-linejoin:miter;stroke-opacity:1"
       d="m 128.68421,456.98248 5.92105,-97.5 12.23685,-10.6579 14.21052,8.28947 -5.52631,102.23685 z"
       id="path8989" />
    <path
       style="fill:#8b3700;fill-opacity:1;stroke:none;stroke-width:1px;stroke-linecap:butt;stroke-linejoin:miter;stroke-opacity:1"
       d="m 202.5,442.37721 4.73684,-71.05263 6.71053,-0.39474 L 210,444.3509 Z"
       id="path9360" />
    <path
       style="fill:#ffac20;fill-opacity:1;stroke:none;stroke-width:1px;stroke-linecap:butt;stroke-linejoin:miter;stroke-opacity:1"
       d="M 211.57895,401.32458 210,444.3509 l 57.63158,2.76316 5.92105,-74.60527 -21.31579,-26.05263 -22.89473,-0.78947 -13.81579,17.36842 z"
       id="path8993" />
    <path
       style="fill:#ffac20;fill-opacity:1;stroke:none;stroke-width:1px;stroke-linecap:butt;stroke-linejoin:miter;stroke-opacity:1"
       d="m 352.10526,325.14037 -0.78947,32.36842 20.92105,-1.18421 -2.36842,-33.15789 z"
       id="path8995" />
    <path
       style="fill:#ffac20;fill-opacity:1;stroke:none;stroke-width:1px;stroke-linecap:butt;stroke-linejoin:miter;stroke-opacity:1"
       d="m 396.31579,328.693 v 29.60527 l 20.13158,-0.39474 -0.78947,-29.21053 z"
       id="path8997" />
    <path
       style="fill:#ffac20;fill-opacity:1;stroke:none;stroke-width:1px;stroke-linecap:butt;stroke-linejoin:miter;stroke-opacity:1"
       d="m 437.76316,332.64037 1.18421,28.81579 22.10526,-1.57895 -2.36842,-24.47368 z"
       id="path8999" />
    <path
       style="fill:#ffac20;fill-opacity:1;stroke:none;stroke-width:1px;stroke-linecap:butt;stroke-linejoin:miter;stroke-opacity:1"
       d="m 480.78947,337.37721 -1.57894,24.47369 18.94737,0.78947 0.39473,-25.26316 z"
       id="path9001" />
    <path
       style="fill:#7e825f;fill-opacity:1;stroke:none;stroke-width:1px;stroke-linecap:butt;stroke-linejoin:miter;stroke-opacity:1"
       d="m 562.5,299.48248 21.71053,-22.89474 2.36842,-10.6579 7.10526,6.31579 13.42105,-12.23684 2.36843,-21.31579 h 2.36842 l 2.36842,21.71053 18.94737,12.23684 1.18421,8.68421 20.52631,20.13158 v 12.63158 L 610.6579,306.193 Z"
       id="path9007" />
    <path
       style="fill:#a5a888;fill-opacity:1;stroke:none;stroke-width:1px;stroke-linecap:butt;stroke-linejoin:miter;stroke-opacity:1"
       d="m 627.23682,305.79827 -6.9079,-31.18421 13.8158,5.32895 20.7237,21.51315 1.5789,12.03948 z"
       id="path9227" />
    <path
       style="fill:#ffac20;fill-opacity:1;stroke:none;stroke-width:1px;stroke-linecap:butt;stroke-linejoin:miter;stroke-opacity:1"
       d="m 562.5,373.29827 21.31579,-9.07895 33.15722,20.92136 0.39481,112.10526 -56.44761,2.76193 z"
       id="path9009" />
    <path
       style="fill:#ffac20;fill-opacity:1;stroke:none;stroke-width:1px;stroke-linecap:butt;stroke-linejoin:miter;stroke-opacity:1"
       d="m 650.13158,398.56142 -0.78947,-20.52631 7.89473,-7.5 13.02632,20.52631 0.39474,132.63158 -22.10527,-0.39473 z"
       id="path9011" />
    <path
       style="fill:none;stroke:none;stroke-width:1px;stroke-linecap:butt;stroke-linejoin:miter;stroke-opacity:1"
       d="m 202.10535,541.45617 2.36842,-44.60526 29.60527,-14.21053 29.60526,13.02632 2.76316,49.73684 z"
       id="path9013" />
    <path
       style="fill:none;stroke:none;stroke-width:1px;stroke-linecap:butt;stroke-linejoin:miter;stroke-opacity:1"
       d="m 118.42114,540.27196 1.18421,-45.39473 18.1579,-7.89474 18.55263,13.81579 -2.36842,41.05263 z"
       id="path9015" />
    <path
       style="fill:none;stroke:none;stroke-width:1px;stroke-linecap:butt;stroke-linejoin:miter;stroke-opacity:1"
       d="m 335.92114,550.53512 -1.57895,-42.63158 h 166.97369 l -0.78948,49.73684 z"
       id="path9017" />
    <path
       style="fill:#9f9696;fill-opacity:1;stroke:none;stroke-width:1px;stroke-linecap:butt;stroke-linejoin:miter;stroke-opacity:1"
       d="m 273.15796,516.98248 46.5789,0.39474 -1.9737,32.36842 -43.421,-0.39474 z"
       id="path9049" />
    <path
       style="fill:#9f9696;fill-opacity:1;stroke:none;stroke-width:1px;stroke-linecap:butt;stroke-linejoin:miter;stroke-opacity:1"
       d="m 155.92106,510.66669 41.8421,-1.18421 -1.1842,33.1579 -40.6579,-1.18421 z"
       id="path9051" />
    <path
       style="fill:#9f9696;fill-opacity:1;stroke:none;stroke-width:1px;stroke-linecap:butt;stroke-linejoin:miter;stroke-opacity:1"
       d="m 96.31586,510.66669 15.7894,1.18421 -0.6907,27.92764 -15.8882,0.19737 z"
       id="path9053" />
    <path
       style="fill:#545151;fill-opacity:1;stroke:none;stroke-width:1px;stroke-linecap:butt;stroke-linejoin:miter;stroke-opacity:1"
       d="m 112.10526,511.8509 h 7.5 l -0.7894,28.81579 -7.4013,-0.88815 z"
       id="path9055" />
    <path
       style="fill:#545151;fill-opacity:1;stroke:none;stroke-width:1px;stroke-linecap:butt;stroke-linejoin:miter;stroke-opacity:1"
       d="m 197.76316,509.48248 -1.1842,33.1579 6.3158,-3.1579 -0.3947,-30.39473 z"
       id="path9057" />
    <path
       style="fill:#746f6f;fill-opacity:1;stroke:none;stroke-width:1px;stroke-linecap:butt;stroke-linejoin:miter;stroke-opacity:1"
       d="m 267.63166,516.19301 5.5263,0.78947 1.1842,32.36842 -7.8947,-3.94736 z"
       id="path9059" />
    <path
       style="fill:#c3bebe;fill-opacity:1;stroke:none;stroke-width:1px;stroke-linecap:butt;stroke-linejoin:miter;stroke-opacity:1"
       d="m 328.94421,542.0347 0.69781,8.23407 184.49904,5.58242 1.25605,-12.56044 -188.96499,-5.16374 z"
       id="path9155" />
    <path
       style="fill:#746f6f;fill-opacity:1;stroke:none;stroke-width:1px;stroke-linecap:butt;stroke-linejoin:miter;stroke-opacity:1"
       d="m 319.73686,517.37722 13.8158,1.57895 -0.7895,31.57895 -15,-0.78948 z"
       id="path9061" />
    <path
       style="fill:#746f6f;fill-opacity:1;stroke:none;stroke-width:1px;stroke-linecap:butt;stroke-linejoin:miter;stroke-opacity:1"
       d="m 547.10536,523.29827 11.8421,-1.18421 -0.7895,39.86842 -13.0263,2.76316 V 526.8509 Z"
       id="path9067" />
    <path
       style="fill:none;stroke:none;stroke-width:1px;stroke-linecap:butt;stroke-linejoin:miter;stroke-opacity:1"
       d="m 333.15796,530.40354 167.7631,8.28947 -1.5789,18.15789 -166.579,-6.31578 z"
       id="path9069" />
    <path
       style="fill:#2d2d15;fill-opacity:1;stroke:none;stroke-width:1px;stroke-linecap:butt;stroke-linejoin:miter;stroke-opacity:1"
       d="m 334.93429,318.08773 0.3947,3.94737 4.5395,-0.39474 -2.1711,35.72369 -3.5526,-0.59211 -0.9868,4.34211 18.1578,0.39474 -3.5526,-3.35527 -1.3816,-1.18421 1.7764,-35.13158 2.9605,-2.76316 -0.1974,-1.77631 z"
       id="path9075" />
    <path
       style="fill:#2d2d15;fill-opacity:1;stroke:none;stroke-width:1px;stroke-linecap:butt;stroke-linejoin:miter;stroke-opacity:1"
       d="m 379.73689,321.64036 0.7895,3.55264 1.9737,0.39473 -1.9737,34.53948 -3.75,1.38158 0.3947,3.35526 14.4079,0.39474 -0.1974,-4.73685 -1.9736,0.19737 2.7631,-36.71052 2.1711,-1.38158 v -1.97369 z"
       id="path9077" />
    <path
       style="fill:#2d2d15;fill-opacity:1;stroke:none;stroke-width:1px;stroke-linecap:butt;stroke-linejoin:miter;stroke-opacity:1"
       d="m 423.35529,324.00879 v 4.73684 h 3.3553 l -1.7763,35.32894 -5.329,0.39474 -0.1973,4.14474 20.7236,1.18421 -2.5658,-8.68421 -4.1447,0.78947 0.5921,-33.94737 2.9605,-0.5921 v -4.14474 z"
       id="path9079" />
    <path
       style="fill:#2d2d15;fill-opacity:1;stroke:none;stroke-width:1px;stroke-linecap:butt;stroke-linejoin:miter;stroke-opacity:1"
       d="m 465.00009,326.96931 v 4.34211 h 2.171 l -0.1974,33.94737 h -5.921 l -0.1974,5.72368 17.9605,-0.98684 0.1974,-3.55263 -3.9474,-0.19737 0.5922,-34.93421 3.9473,0.19737 v -3.55264 z"
       id="path9081" />
    <path
       style="fill:#2d2d15;fill-opacity:1;stroke:none;stroke-width:1px;stroke-linecap:butt;stroke-linejoin:miter;stroke-opacity:1"
       d="m 504.07899,328.74563 -0.1974,6.11842 5.329,-0.59211 -0.3948,32.56579 -6.7105,0.59211 0.1974,4.93421 h 17.9605 v -4.14474 l -4.7368,-1.38158 0.3947,-33.15789 4.9342,-1.57895 0.1974,-4.93421 z"
       id="path9083" />
    <path
       style="fill:#b5662d;fill-opacity:1;stroke:none;stroke-width:1px;stroke-linecap:butt;stroke-linejoin:miter;stroke-opacity:1"
       d="m 282.46599,285.2323 c -2.233,-0.83737 -11.1649,-8.09452 -11.1649,-8.09452 l 7.8154,-8.09451 11.1649,-2.23297 25.4,3.07033 119.46379,-45.49673 114.1605,66.1517 27.9121,3.07033 0.5583,8.93187 -6.1407,0.27912 -114.9979,-7.53627 -7.5362,-25.12089 -10.3275,-6.41979 -1.3956,5.58242 -8.3737,1.39561 -3.0703,-5.3033 -9.7692,1.95385 -7.8154,20.37584 -1.6747,3.34945 -77.87479,-5.3033 -5.3033,-6.14067 -25.6792,0.27912 -7.8154,-0.83736 -8.6527,6.14067 -1.3956,-0.55825 z"
       id="path9087-0" />
    <path
       style="fill:#b5662d;fill-opacity:1;stroke:none;stroke-width:1px;stroke-linecap:butt;stroke-linejoin:miter;stroke-opacity:1"
       d="m 281.64479,307.82457 1.579,15.39474 13.421,-2.36842 6.7106,-2.76316 22.5,4.3421 7.1052,1.97368 1.9737,-6.31578 190.26319,10.65788 6.7105,-2.36842 26.4474,4.34211 4.3421,1.97368 3.5526,5.13158 0.3948,-9.86842 -8.2895,-3.55263 -9.4737,-1.1842 -22.1053,-1.18421 -1.9737,-0.78948 -199.73679,-16.18421 -5.9211,0.78948 -24.8684,-1.18421 z"
       id="path9089-6" />
    <path
       style="fill:#a85010;fill-opacity:1;stroke:none;stroke-width:1px;stroke-linecap:butt;stroke-linejoin:miter;stroke-opacity:1"
       d="m 279.95389,284.67405 2.8752,7.36105 -1.1843,15.78947 v 0 l 12.6316,-3.15789 35.1316,1.18421 99.47369,6.31579 97.8947,9.86842 h 28.4211 l 11.4474,5.92104 v -15.78946 l 4.7368,-2.76316 0.2537,-6.5866 -114.9979,-7.53627 -127.83739,-9.49011 -5.3033,-6.14067 -33.4946,-0.55824 z"
       id="path9091-3" />
    <path
       style="fill:#834202;fill-opacity:1;stroke:none;stroke-width:1px;stroke-linecap:butt;stroke-linejoin:miter;stroke-opacity:1"
       d="m 407.56588,282.56141 1.5789,15.39474 28.4211,8.68421 12.6316,-9.86842 5.1316,-14.60526 -16.5553,-18.42671 -9.7693,6.97803 -3.0703,-5.3033 -9.7692,1.95385 z"
       id="path9093-2" />
    <path
       style="opacity:0.12900002;fill:#ffffff;fill-opacity:1;stroke:none;stroke-width:1px;stroke-linecap:butt;stroke-linejoin:miter;stroke-opacity:1"
       d="m 287.35876,273.98362 5.247,47.34168 -1.3393,54.81664 -7.8154,141.79352 36.2858,-0.55824 3.3494,-202.08368 -3.3494,-41.86816 -33.4945,-6.14067 z"
       id="path9131" />
    <path
       style="opacity:0.15100002;fill:#ffffff;fill-opacity:1;stroke:none;stroke-width:1px;stroke-linecap:butt;stroke-linejoin:miter;stroke-opacity:1"
       d="m 531.09887,300.18028 -8.95361,231.44785 24.9601,-8.32986 7.9844,-196.46343 1.41736,-25.21517 z"
       id="path9133" />
    <path
       style="fill:#ad4700;fill-opacity:1;stroke:none;stroke-width:1px;stroke-linecap:butt;stroke-linejoin:miter;stroke-opacity:1"
       d="m 326.9329,366.94539 -0.5583,14.79342 197.6178,7.81539 1.1165,-17.86375 z"
       id="path9135" />
    <path
       style="fill:#8b4114;fill-opacity:1;stroke:none;stroke-width:1px;stroke-linecap:butt;stroke-linejoin:miter;stroke-opacity:1"
       d="m 329.445,364.71242 -1.1165,6.41978 198.176,4.74506 -1.3956,-4.18681 z"
       id="path9137" />
    <path
       style="fill:#ad4700;fill-opacity:1;stroke:none;stroke-width:1px;stroke-linecap:butt;stroke-linejoin:miter;stroke-opacity:1"
       d="m 347.47226,473.55321 -11.444,-5.86154 12.2813,-22.60881 23.4462,-21.49233 39.6352,-13.39781 31.8198,2.51209 41.589,17.30551 18.9803,22.05056 12.8395,22.05057 -14.5143,4.18682 -25.4,-32.65717 -41.3099,-18.42199 -34.0528,1.3956 -34.3319,15.63078 z"
       id="path9139" />
    <path
       style="fill:#73412a;fill-opacity:1;stroke:none;stroke-width:1px;stroke-linecap:butt;stroke-linejoin:miter;stroke-opacity:1"
       d="m 432.04596,427.77735 -0.2792,53.45169 3.7682,-0.55824 v -53.73081 z"
       id="path9185" />
    <path
       style="fill:#73412a;fill-opacity:1;stroke:none;stroke-width:1px;stroke-linecap:butt;stroke-linejoin:miter;stroke-opacity:1"
       d="m 453.53826,433.91801 0.8373,47.86927 2.9308,-0.27912 0.1396,-46.19454 z"
       id="path9187" />
    <path
       style="fill:#73412a;fill-opacity:1;stroke:none;stroke-width:1px;stroke-linecap:butt;stroke-linejoin:miter;stroke-opacity:1"
       d="m 472.93716,448.29275 0.9769,35.16926 3.3495,-0.55824 -0.1396,-32.79673 z"
       id="path9189" />
    <path
       style="fill:#b3b3b3;stroke:none;stroke-width:1px;stroke-linecap:butt;stroke-linejoin:miter;stroke-opacity:1"
       d="m 414.07895,282.11405 3.55263,10.6579 16.18421,8.28947 13.42105,-9.07894 1.18421,-13.02632 -11.04287,-9.63377 -10.66765,6.08114 -3.94737,-3.1579 z"
       id="path9141" />
    <path
       style="fill:#ffffff;fill-opacity:1;stroke:none;stroke-width:1px;stroke-linecap:butt;stroke-linejoin:miter;stroke-opacity:1"
       d="m 343.02932,486.31037 1.9538,3.62857 3.3495,-0.13956 v -4.04725 l -2.3725,-1.95385 z"
       id="path9157" />
    <path
       style="fill:#ffffff;fill-opacity:1;stroke:none;stroke-width:1px;stroke-linecap:butt;stroke-linejoin:miter;stroke-opacity:1"
       d="m 361.03262,486.17081 2.0934,4.18681 4.7451,-2.0934 -0.4187,-3.9077 -5.0242,-0.83736 z"
       id="path9159" />
    <path
       style="fill:#ffffff;fill-opacity:1;stroke:none;stroke-width:1px;stroke-linecap:butt;stroke-linejoin:miter;stroke-opacity:1"
       d="m 380.57112,487.70597 2.233,3.2099 5.5824,0.13956 1.1165,-3.2099 -4.1869,-3.48901 h -4.0472 l -0.8374,4.18682 z"
       id="path9161" />
    <path
       style="fill:#ffffff;fill-opacity:1;stroke:none;stroke-width:1px;stroke-linecap:butt;stroke-linejoin:miter;stroke-opacity:1"
       d="m 400.66782,485.89169 -0.6978,2.93077 2.6517,2.65165 h 3.7681 l 1.6747,-4.04726 -4.1868,-3.48901 z"
       id="path9163" />
    <path
       style="fill:#ffffff;fill-opacity:1;stroke:none;stroke-width:1px;stroke-linecap:butt;stroke-linejoin:miter;stroke-opacity:1"
       d="m 419.92722,486.44993 0.8373,5.16374 h 5.3033 l -1.8143,-4.74506 -3.6285,-1.95385 z"
       id="path9165" />
    <path
       style="fill:#ffffff;fill-opacity:1;stroke:none;stroke-width:1px;stroke-linecap:butt;stroke-linejoin:miter;stroke-opacity:1"
       d="m 437.65132,485.33344 -0.1395,3.48902 3.0703,2.37253 2.7912,-1.53517 1.3956,-3.90769 z"
       id="path9167" />
    <path
       style="fill:#ffffff;fill-opacity:1;stroke:none;stroke-width:1px;stroke-linecap:butt;stroke-linejoin:miter;stroke-opacity:1"
       d="m 454.53822,488.6829 2.2329,3.48901 4.0473,-0.41868 -1.256,-4.74506 -4.1869,0.13956 -1.256,0.13956 z"
       id="path9169" />
    <path
       style="fill:#ffffff;fill-opacity:1;stroke:none;stroke-width:1px;stroke-linecap:butt;stroke-linejoin:miter;stroke-opacity:1"
       d="m 472.26242,487.56641 -0.4187,3.34946 1.8143,0.97692 3.7681,1.11648 2.233,-1.67472 0.4187,-4.6055 -2.6517,-2.37253 z"
       id="path9171" />
    <path
       style="fill:#ffffff;fill-opacity:1;stroke:none;stroke-width:1px;stroke-linecap:butt;stroke-linejoin:miter;stroke-opacity:1"
       d="m 492.49862,488.6829 0.2792,2.65165 5.4428,2.37253 0.2791,-2.79121 -0.2791,-3.34946 -4.1868,-0.83736 z"
       id="path9173" />
    <path
       style="fill:#bb672b;fill-opacity:1;stroke:none;stroke-width:1px;stroke-linecap:butt;stroke-linejoin:miter;stroke-opacity:1"
       d="m 253.73678,340.21541 -18.7012,0.83789 -29.5859,17.58399 -2.5117,21.77148 -7.5371,0.2793 -0.8379,28.1914 29.9511,1.02149 -2.1699,43.77148 8.6856,0.5918 1.3359,-44.0957 22.1445,0.75586 -3.1523,42.15624 7.8945,0.98633 3.1836,-42.87109 13.9102,0.47461 2.2324,-26.79688 -0.2793,-20.0957 z m -8.9316,11.72266 11.4433,4.46679 0.2793,27.07422 -23.4453,-0.55859 0.5586,-30.14453 z m -16.4688,2.79101 -2.791,27.91211 -12.5605,-0.55859 5.3046,-17.86328 z m 35.4492,6.14063 7.8145,8.93164 1.3965,13.95703 -9.7696,-0.2793 z"
       id="path9193" />
    <path
       style="fill:#bb672b;fill-opacity:1;stroke:none;stroke-width:1px;stroke-linecap:butt;stroke-linejoin:miter;stroke-opacity:1"
       d="m 148.02632,336.58722 -13.0254,2.96094 -11.6446,14.20899 -2.9609,20.33007 -5.5254,56.8418 -3.1582,72.03906 5.5254,-11.05273 14.4082,-5.32813 17.7637,4.9336 7.6972,10.26367 6.711,-148.61914 -4.541,-9.27539 z m -4.1446,9.07813 13.8164,8.68555 1.1836,33.15625 -3.3554,71.84375 -35.3282,-2.17188 2.7637,-67.69727 3.1582,-24.08007 8.2891,-16.57813 z"
       id="path9212" />
    <path
       style="fill:#a85010;fill-opacity:1;stroke:none;stroke-width:1px;stroke-linecap:butt;stroke-linejoin:miter;stroke-opacity:1"
       d="m 104.21056,317.24564 -1.21944,21.29658 23.72527,-3.90769 58.0572,-7.16484 16.655,-2.09231 7.3494,1.53406 75.1298,4.14067 1.9077,-19.21321 -3.3495,-10.6066 -84.2023,-3.25715 -17.3978,-0.74285 z"
       id="path9215" />
    <path
       style="fill:#a85010;fill-opacity:1;stroke:none;stroke-width:1px;stroke-linecap:butt;stroke-linejoin:miter;stroke-opacity:1"
       d="m 561.00646,315.01948 -1.4418,25.67914 73.455,2.23297 40.7517,14.51429 11.1649,6.69891 1.1164,-24.00441 -50.8,-24.56266 z"
       id="path9217" />
    <path
       style="fill:#7e3a13;fill-opacity:1;stroke:none;stroke-width:1px;stroke-linecap:butt;stroke-linejoin:miter;stroke-opacity:1"
       d="m 336.02826,467.69167 12.2813,-22.60881 23.4462,-21.49233 39.6352,-13.39781 31.8198,2.51209 41.589,17.30551 20.85814,26.18268 10.96166,17.91845 3.6436,-3.31318 -28.42105,-40.6579 -44.21053,-20.52632 -33.1579,-3.94736 -45,14.21052 -25.65789,24.07895 -12.63158,22.89474 z"
       id="path9219" />
    <path
       style="fill:#8b4219;fill-opacity:1;stroke:none;stroke-width:1px;stroke-linecap:butt;stroke-linejoin:miter;stroke-opacity:1"
       d="m 354.0144,273.74108 80.1078,-27.35387 64.7561,34.89014 -39.077,0.55824 -7.1176,-17.44507 -18.8406,-11.72309 -18.2825,5.02418 -12.2813,14.37474 -0.4187,3.07033 z"
       id="path9221" />
    <path
       style="fill:#b66429;fill-opacity:1;stroke:none;stroke-width:1px;stroke-linecap:butt;stroke-linejoin:miter;stroke-opacity:1"
       d="m 102.71199,318.67847 -13.9561,-14.5143 98.8089,-26.56266 22.8879,9.8154 71.8726,1.11648 -0.0923,11.72309 1.8593,7.25714 -83.1297,-5.58242 -20.0967,-4.6989 z"
       id="path9223" />
    <path
       style="fill:#bb672b;fill-opacity:1;stroke:none;stroke-width:1px;stroke-linecap:butt;stroke-linejoin:miter;stroke-opacity:1"
       d="m 563.46316,302.18298 69.079,8.28947 7.1052,-5.92105 52.8948,27.63158 -8.2895,9.47368 -45,-24.07894 -11.8421,0.39473 -68.6842,-3.94737 z"
       id="path9225" />
    <path
       style="fill:#000000;fill-opacity:1;stroke:none;stroke-width:1px;stroke-linecap:butt;stroke-linejoin:miter;stroke-opacity:1"
       d="m 558.15796,561.98248 -0.5583,-26.23738 12.5605,-4.74506 60.5692,3.34945 0.5583,28.47035 z"
       id="path9229" />
    <path
       style="fill:#000000;stroke:none;stroke-width:1px;stroke-linecap:butt;stroke-linejoin:miter;stroke-opacity:1"
       d="m 187.89474,234.15353 23.28947,-7.89474 24.27632,10.06579 z"
       id="path9231" />
    <path
       style="fill:#000000;stroke:none;stroke-width:0.53507859px;stroke-linecap:butt;stroke-linejoin:miter;stroke-opacity:1"
       d="m 598.16659,270.69336 13.31292,-3.95421 13.87703,5.04161 z"
       id="path9231-1" />
    <path
       style="fill:#bb672b;fill-opacity:1;stroke:none;stroke-width:1.03184438px;stroke-linecap:butt;stroke-linejoin:miter;stroke-opacity:1"
       d="m 577.73091,353.5606 -16.8107,6.31641 V 483.9024 l 3.36254,0.31641 0.84016,11.05273 -4.2027,4.73633 36.98394,-1.97266 2.94241,-9.86914 10.08763,0.39453 v 9.86914 l -13.03004,-0.39453 26.4782,7.10547 -2.10236,-46.18555 -15.12836,-1.97265 5.04275,-39.08008 13.02813,1.58008 -0.42014,-22.5 -4.20259,1.18359 v -13.02539 l -23.11576,-25.6582 z m -4.62273,15.78907 h 18.0729 l 0.42003,5.13281 -18.49293,0.39453 z m 26.05817,0.39453 7.1431,7.10547 1.2622,17.76367 -6.72509,0.39453 z m -7.14511,9.47461 -1.26018,14.60546 -16.81272,-1.58007 -0.42013,-11.44727 z m 12.18787,40.26367 1.68031,9.86719 -4.62273,0.79101 v -8.29101 z m -14.71036,3.1582 1.68233,3.94727 -17.65287,0.78906 v -4.3418 z m 0,8.28906 2.10236,26.44727 -18.91295,0.78906 1.26018,-24.07812 z m -17.65075,56.8418 21.01329,0.39453 -3.36254,7.5 -18.49091,1.1836 z"
       id="path9282" />
    <path
       style="fill:#bb672b;fill-opacity:1;stroke:none;stroke-width:0.98443484px;stroke-linecap:butt;stroke-linejoin:miter;stroke-opacity:1"
       d="m 559.63492,507.70606 1.08201,20.65496 68.43637,1.39561 0.54105,-17.30551 -23.80401,-4.46594 z"
       id="path9314" />
    <path
       style="fill:#bb672b;fill-opacity:1;stroke:none;stroke-width:1px;stroke-linecap:butt;stroke-linejoin:miter;stroke-opacity:1"
       d="m 561.11858,342.95614 58.8157,2.36842 3.9474,4.73684 9.8684,-0.39473 12.2369,6.31579 5.1316,-0.39474 19.73677,6.71053 14.08091,1.84654 -0.26508,-3.82023 -12.6316,-8.28947 -39.4737,-16.18421 -69.8684,-3.1579 z"
       id="path9316" />
    <path
       style="fill:#bb672b;fill-opacity:1;stroke:none;stroke-width:1px;stroke-linecap:butt;stroke-linejoin:miter;stroke-opacity:1"
       d="m 190.50596,463.79892 4.7451,-11.72309 77.0374,1.95385 -1.6747,12.56045 -2.233,34.89014 -23.7253,-13.39781 -33.4945,3.90769 -11.444,9.76924 -1.9538,11.72309 -5.8616,0.83736 z"
       id="path9318-5" />
    <path
       style="fill:#bb672b;fill-opacity:1;stroke:none;stroke-width:1px;stroke-linecap:butt;stroke-linejoin:miter;stroke-opacity:1"
       d="m 648.13158,398.56142 -0.5921,22.5 26.6447,6.31579 0.3948,-19.53947 z"
       id="path9335" />
    <path
       style="fill:#bb672b;fill-opacity:1;stroke:none;stroke-width:1px;stroke-linecap:butt;stroke-linejoin:miter;stroke-opacity:1"
       d="m 647.53948,462.50879 0.3947,21.31579 23.6842,4.73684 -0.1973,-24.27631 z"
       id="path9337" />
    <path
       style="fill:#000000;fill-opacity:1;stroke:none;stroke-width:1px;stroke-linecap:butt;stroke-linejoin:miter;stroke-opacity:1"
       d="m 643.05538,562.7615 -0.5583,-26.23738 12.5605,-4.74506 30.145,1.11648 -3.04117,28.73187 z"
       id="path9229-5" />
    <path
       style="fill:#923900;fill-opacity:1;stroke:none;stroke-width:1px;stroke-linecap:butt;stroke-linejoin:miter;stroke-opacity:1"
       d="m 506.84213,518.95616 14.21056,-191.78948 10.85529,-0.78949 -7.69742,198.50001 z"
       id="path9356" />
    <path
       style="fill:#9f9696;fill-opacity:1;stroke:none;stroke-width:1px;stroke-linecap:butt;stroke-linejoin:miter;stroke-opacity:1"
       d="m 521.44746,521.71933 25.6579,1.57894 -1.9737,41.44737 -26.4474,-1.57895 z"
       id="path9065" />
    <path
       style="fill:#746f6f;fill-opacity:1;stroke:none;stroke-width:1px;stroke-linecap:butt;stroke-linejoin:miter;stroke-opacity:1"
       d="m 502.89476,519.3509 18.5527,2.36843 -2.7632,41.44736 -19.3421,-6.31579 z"
       id="path9063" />
    <path
       style="fill:#923900;fill-opacity:1;stroke:none;stroke-width:1px;stroke-linecap:butt;stroke-linejoin:miter;stroke-opacity:1"
       d="m 322.94311,322.50596 10.01748,1.89755 0.59207,194.55266 -13.8158,-1.57895 z"
       id="path9358" />
  </g>
</svg>
